<?xml version="1.0" encoding="UTF-8" standalone="no"?><!DOCTYPE svg PUBLIC "-//W3C//DTD SVG 1.1//EN" "http://www.w3.org/Graphics/SVG/1.1/DTD/svg11.dtd"><svg width="100%" height="100%" viewBox="0 0 933 970" version="1.1" xmlns="http://www.w3.org/2000/svg" xmlns:xlink="http://www.w3.org/1999/xlink" xml:space="preserve" style="fill-rule:evenodd;clip-rule:evenodd;stroke-linejoin:round;stroke-miterlimit:1.41421;"><rect id="Artboard1" x="0" y="0" width="932.343" height="969.114" style="fill:none;"/><g><path d="M848.368,531.664c0,227.138 -184.132,411.272 -411.272,411.272c-227.14,0 -411.273,-184.134 -411.273,-411.272c0,-227.141 184.133,-411.274 411.273,-411.274c227.14,0 411.272,184.133 411.272,411.274Z" style="fill:#f16034;fill-rule:nonzero;"/><path d="M492.146,418.405c0,30.405 -24.648,55.052 -55.054,55.052c-30.403,0 -55.048,-24.647 -55.048,-55.052c0,-30.405 24.645,-55.054 55.048,-55.054c30.406,0 55.054,24.649 55.054,55.054Z" style="fill:#fff;fill-rule:nonzero;"/><path d="M445.192,413.427l-3.594,0l-14.983,0l1.242,5.593l22.167,0l1.484,-5.593l-6.316,0Z" style="fill:#4c9fd7;fill-rule:nonzero;"/><path d="M428.295,432.523c-3.11,0 -5.629,2.519 -5.629,5.621c0,3.108 2.519,5.622 5.629,5.622c3.097,0 5.613,-2.514 5.613,-5.622c0,-3.102 -2.516,-5.621 -5.613,-5.621Z" style="fill:#4c9fd7;fill-rule:nonzero;"/><path d="M449.449,432.523c-3.109,0 -5.629,2.519 -5.629,5.621c0,3.108 2.52,5.622 5.629,5.622c3.1,0 5.616,-2.514 5.616,-5.622c0,-3.102 -2.516,-5.621 -5.616,-5.621Z" style="fill:#4c9fd7;fill-rule:nonzero;"/><path d="M453.82,423.227l-0.171,0.57l-29.813,0l-3.734,-15.145l38.085,0l-4.367,14.575Zm9.879,-23.257c-0.271,-0.088 -0.533,-0.123 -0.801,-0.123c-1.198,0 -2.306,0.776 -2.666,1.985l-0.373,1.247l-41.136,0l-2.12,-7.92c-0.307,-1.237 -1.427,-2.12 -2.7,-2.12l-14.362,0c-1.542,0 -2.79,1.245 -2.79,2.792c0,1.53 1.248,2.782 2.79,2.786l12.174,0l7.233,28.631c0.305,1.241 1.429,2.126 2.7,2.126l34.074,0c1.229,0 2.32,-0.817 2.666,-1.992l7.179,-23.944c0.088,-0.274 0.12,-0.543 0.12,-0.802c0,-1.205 -0.776,-2.312 -1.988,-2.666Z" style="fill:#4c9fd7;fill-rule:nonzero;"/><rect x="237.558" y="41.977" width="301.353" height="23.339" style="fill:#f16034;fill-rule:nonzero;"/><rect x="237.558" y="65.316" width="301.353" height="420.885" style="fill:#fafbfc;fill-rule:nonzero;"/><rect x="263.506" y="181.682" width="112.892" height="9.93" style="fill:#b0b0b1;fill-rule:nonzero;"/><rect x="263.506" y="222.317" width="249.456" height="9.927" style="fill:#b0b0b1;fill-rule:nonzero;"/><rect x="263.506" y="244.89" width="249.456" height="9.933" style="fill:#b0b0b1;fill-rule:nonzero;"/><rect x="263.506" y="267.463" width="249.456" height="9.927" style="fill:#b0b0b1;fill-rule:nonzero;"/><rect x="263.506" y="290.035" width="249.456" height="9.938" style="fill:#b0b0b1;fill-rule:nonzero;"/><rect x="263.506" y="312.643" width="249.456" height="9.927" style="fill:#b0b0b1;fill-rule:nonzero;"/><rect x="263.506" y="335.216" width="249.456" height="9.932" style="fill:#b0b0b1;fill-rule:nonzero;"/><rect x="263.506" y="357.79" width="249.456" height="9.925" style="fill:#b0b0b1;fill-rule:nonzero;"/><rect x="263.506" y="380.36" width="249.456" height="9.938" style="fill:#b0b0b1;fill-rule:nonzero;"/><rect x="263.506" y="402.823" width="249.456" height="9.934" style="fill:#b0b0b1;fill-rule:nonzero;"/><rect x="263.506" y="425.396" width="249.456" height="9.927" style="fill:#b0b0b1;fill-rule:nonzero;"/><rect x="263.506" y="447.97" width="249.456" height="9.936" style="fill:#b0b0b1;fill-rule:nonzero;"/><rect x="286.42" y="95.494" width="301.353" height="23.34" style="fill:#f16034;fill-rule:nonzero;"/><rect x="286.42" y="118.834" width="301.353" height="420.884" style="fill:#fff;fill-rule:nonzero;"/><rect x="312.367" y="235.199" width="112.893" height="9.931" style="fill:#b0b0b1;fill-rule:nonzero;"/><rect x="312.367" y="275.835" width="249.456" height="9.927" style="fill:#b0b0b1;fill-rule:nonzero;"/><rect x="312.367" y="298.407" width="249.456" height="9.934" style="fill:#b0b0b1;fill-rule:nonzero;"/><rect x="312.367" y="320.98" width="249.456" height="9.928" style="fill:#b0b0b1;fill-rule:nonzero;"/><rect x="312.367" y="343.552" width="249.456" height="9.937" style="fill:#b0b0b1;fill-rule:nonzero;"/><rect x="312.367" y="366.161" width="249.456" height="9.927" style="fill:#b0b0b1;fill-rule:nonzero;"/><rect x="312.367" y="388.734" width="249.456" height="9.932" style="fill:#b0b0b1;fill-rule:nonzero;"/><rect x="312.367" y="411.307" width="249.456" height="9.926" style="fill:#b0b0b1;fill-rule:nonzero;"/><rect x="312.367" y="433.878" width="249.456" height="9.937" style="fill:#b0b0b1;fill-rule:nonzero;"/><rect x="312.367" y="456.339" width="249.456" height="9.934" style="fill:#b0b0b1;fill-rule:nonzero;"/><rect x="312.367" y="478.914" width="249.456" height="9.927" style="fill:#b0b0b1;fill-rule:nonzero;"/><rect x="312.367" y="501.488" width="249.456" height="9.937" style="fill:#b0b0b1;fill-rule:nonzero;"/><rect x="335.283" y="149.147" width="301.351" height="23.341" style="fill:#f16034;fill-rule:nonzero;"/><rect x="335.283" y="172.488" width="301.351" height="420.884" style="fill:#fafbfc;fill-rule:nonzero;"/><rect x="361.23" y="288.852" width="112.892" height="9.931" style="fill:#b0b0b1;fill-rule:nonzero;"/><rect x="361.23" y="329.489" width="249.457" height="9.927" style="fill:#b0b0b1;fill-rule:nonzero;"/><rect x="361.23" y="352.061" width="249.457" height="9.933" style="fill:#b0b0b1;fill-rule:nonzero;"/><rect x="361.23" y="374.634" width="249.457" height="9.927" style="fill:#b0b0b1;fill-rule:nonzero;"/><rect x="361.23" y="397.206" width="249.457" height="9.937" style="fill:#b0b0b1;fill-rule:nonzero;"/><rect x="361.23" y="419.814" width="249.457" height="9.928" style="fill:#b0b0b1;fill-rule:nonzero;"/><rect x="361.23" y="442.386" width="249.457" height="9.933" style="fill:#b0b0b1;fill-rule:nonzero;"/><rect x="361.23" y="464.96" width="249.457" height="9.926" style="fill:#b0b0b1;fill-rule:nonzero;"/><rect x="361.23" y="487.531" width="249.457" height="9.939" style="fill:#b0b0b1;fill-rule:nonzero;"/><rect x="361.23" y="509.994" width="249.457" height="9.931" style="fill:#b0b0b1;fill-rule:nonzero;"/><rect x="361.23" y="532.57" width="249.457" height="9.926" style="fill:#b0b0b1;fill-rule:nonzero;"/><rect x="361.23" y="555.14" width="249.457" height="9.94" style="fill:#b0b0b1;fill-rule:nonzero;"/><path d="M460.787,207.067l0,14.707c0,0.694 -0.197,1.259 -0.595,1.689c-0.395,0.432 -0.905,0.648 -1.527,0.648c-0.602,0 -1.099,-0.197 -1.493,-0.594c-0.396,-0.395 -0.655,-0.942 -0.774,-1.636l-0.357,-2.194c-0.362,-2.228 -1.059,-4.159 -2.087,-5.789c-0.649,-1.006 -1.522,-1.833 -2.626,-2.48l0,-4.351l9.459,0Zm-12.444,0l0,42.252c0,0.934 0.182,1.605 0.541,2.014c0.191,0.238 0.371,0.389 0.539,0.448c0.167,0.061 0.718,0.21 1.653,0.45c1.153,0.264 1.726,0.922 1.726,1.977c0,0.625 -0.312,1.128 -0.933,1.511c-0.457,0.288 -1.223,0.432 -2.303,0.432l-1.185,0l-16.038,0l-1.187,0c-1.056,0 -1.853,-0.161 -2.393,-0.485c-0.539,-0.323 -0.808,-0.811 -0.808,-1.458c0,-1.055 0.575,-1.713 1.725,-1.977c0.937,-0.24 1.488,-0.389 1.655,-0.45c0.166,-0.059 0.336,-0.21 0.503,-0.448c0.361,-0.409 0.541,-1.08 0.541,-2.014l0,-42.252l15.964,0Zm-28.334,0l9.458,0l0,4.351c-1.129,0.647 -2.003,1.474 -2.624,2.48c-1.034,1.63 -1.729,3.561 -2.089,5.789l-0.36,2.194c-0.117,0.694 -0.376,1.241 -0.773,1.636c-0.394,0.397 -0.895,0.594 -1.491,0.594c-0.624,0 -1.133,-0.216 -1.531,-0.648c-0.393,-0.43 -0.59,-0.995 -0.59,-1.689l0,-14.707Z" style="fill:#3b3b3b;fill-rule:nonzero;"/><path d="M479.628,207.067l14.49,0l10,42.252c0.192,0.743 0.407,1.401 0.645,1.977c0.217,0.456 0.695,0.827 1.439,1.114c0.625,0.265 1.057,0.527 1.295,0.792c0.241,0.265 0.36,0.623 0.36,1.08c0,1.245 -0.934,1.869 -2.805,1.869l-17.943,0c-0.719,0 -1.295,-0.174 -1.725,-0.522c-0.434,-0.348 -0.648,-0.808 -0.648,-1.384c0,-0.478 0.097,-0.839 0.287,-1.08c0.191,-0.238 0.623,-0.539 1.295,-0.897c0.478,-0.24 0.814,-0.505 1.007,-0.792c0.19,-0.288 0.286,-0.648 0.286,-1.08c0,-0.407 -0.034,-0.766 -0.106,-1.077l-1.152,-5.215l-10.033,0l0.972,-4.279l8.055,0l-6.619,-29.236l0.9,-3.522Zm-2.48,9.131l1.834,7.445l-6.366,23.231c-0.191,0.669 -0.289,1.293 -0.289,1.869c0,1.51 0.709,2.59 2.121,3.235l1.262,0.577c0.789,0.36 1.186,0.959 1.186,1.797c0,1.2 -0.875,1.799 -2.625,1.799l-9.135,0c-0.886,0 -1.586,-0.185 -2.103,-0.558c-0.516,-0.371 -0.773,-0.88 -0.773,-1.528c0,-0.696 0.527,-1.271 1.583,-1.727c0.983,-0.432 1.708,-0.82 2.175,-1.168c0.468,-0.346 0.917,-0.821 1.349,-1.421c0.67,-0.981 1.223,-2.289 1.654,-3.918l8.127,-29.633Z" style="fill:#3b3b3b;fill-rule:nonzero;"/><path d="M538.495,223.319l-2.013,-3.99l2.013,-3.417c0.453,-0.79 0.682,-1.474 0.682,-2.049c0,-0.527 -0.16,-1.044 -0.482,-1.547c-0.327,-0.503 -0.75,-0.876 -1.28,-1.114l-1.256,-0.576c-0.242,-0.121 -0.453,-0.346 -0.632,-0.683c-0.18,-0.335 -0.268,-0.672 -0.268,-1.008c0,-0.573 0.203,-1.03 0.609,-1.366c0.407,-0.336 0.948,-0.502 1.618,-0.502l10.394,0c0.67,0 1.227,0.148 1.67,0.448c0.445,0.301 0.668,0.69 0.668,1.168c0,0.577 -0.217,1.079 -0.646,1.511c-0.17,0.144 -0.674,0.445 -1.512,0.901c-1.705,0.933 -3.115,2.288 -4.244,4.062l-5.321,8.162Zm-16.974,15.284l1.978,4.099l-2.23,3.632c-0.817,1.342 -1.221,2.409 -1.221,3.201c0,1.15 0.649,1.99 1.942,2.517c0.718,0.286 1.21,0.574 1.474,0.863c0.262,0.287 0.395,0.683 0.395,1.185c0,0.672 -0.287,1.224 -0.864,1.656c-0.214,0.167 -0.455,0.275 -0.718,0.323c-0.266,0.047 -0.768,0.072 -1.51,0.072l-9.277,0c-0.768,0 -1.374,-0.161 -1.817,-0.485c-0.445,-0.323 -0.668,-0.773 -0.668,-1.35c0,-0.454 0.141,-0.833 0.416,-1.132c0.274,-0.299 0.76,-0.581 1.455,-0.846c1.799,-0.694 3.188,-1.834 4.174,-3.415l6.471,-10.32Zm8.883,-25.245l18.087,36.788c0.432,0.839 1.018,1.45 1.762,1.832c0.647,0.336 1.084,0.648 1.313,0.937c0.228,0.287 0.34,0.683 0.34,1.185c0,0.648 -0.239,1.165 -0.717,1.548c-0.408,0.336 -1.272,0.503 -2.59,0.503l-16.867,0c-1.291,0 -2.131,-0.083 -2.518,-0.253c-0.836,-0.359 -1.256,-0.969 -1.256,-1.833c0,-0.312 0.082,-0.582 0.252,-0.81c0.168,-0.226 0.481,-0.509 0.934,-0.845c0.816,-0.599 1.211,-1.15 1.189,-1.653c-0.025,-0.408 -0.242,-1.018 -0.65,-1.834l-17.654,-35.565c-0.289,-0.598 -0.602,-1.071 -0.938,-1.419c-0.334,-0.348 -0.777,-0.666 -1.328,-0.953c-0.482,-0.24 -0.809,-0.505 -0.99,-0.792c-0.178,-0.287 -0.27,-0.682 -0.27,-1.188c0,-0.718 0.258,-1.221 0.776,-1.508c0.515,-0.289 1.431,-0.431 2.75,-0.431l16.755,0c1.225,0 2.104,0.154 2.643,0.466c0.539,0.311 0.811,0.817 0.811,1.511c0,0.696 -0.397,1.307 -1.188,1.834c-0.359,0.263 -0.605,0.484 -0.736,0.663c-0.133,0.182 -0.198,0.429 -0.198,0.738c0,0.336 0.096,0.697 0.288,1.079Z" style="fill:#3b3b3b;fill-rule:nonzero;"/><path d="M822.632,608.917l-206.221,0c-11.394,0 -20.63,9.237 -20.63,20.635l0,130.561c0,11.392 9.236,20.627 20.63,20.627l206.221,0l0,-171.823Z" style="fill:#4c9fd7;fill-rule:nonzero;"/><path d="M680.703,780.74l-64.292,0c-11.394,0 -20.63,-9.235 -20.63,-20.627l0,-52.346l52.314,0l0,30.227c0,5.543 4.301,8.314 8.603,8.314c1.276,0 2.553,-0.244 3.717,-0.732l0,14.537c0,11.279 9.051,20.443 20.288,20.624l0,0.003Z" style="fill:#81bde7;fill-rule:nonzero;"/><path d="M762.529,557.089c0,-8.785 -7.12,-15.918 -15.907,-15.918l-230.728,0c-8.787,0 -15.909,7.133 -15.909,15.918l0,134.768c0,8.785 7.122,15.91 15.909,15.91l230.728,0c8.787,0 15.907,-7.125 15.907,-15.91l0,-134.768Z" style="fill:#eae4ee;fill-rule:nonzero;"/><rect x="499.985" y="667.226" width="262.544" height="22.949" style="fill:#151d20;fill-rule:nonzero;"/><rect x="514.974" y="603.265" width="186.361" height="24.578" style="fill:#f16034;fill-rule:nonzero;"/><rect x="514.974" y="636.536" width="186.361" height="5.995" style="fill:#f16034;fill-rule:nonzero;"/><rect x="514.974" y="588.265" width="93.182" height="7.311" style="fill:#f16034;fill-rule:nonzero;"/><rect x="514.974" y="576.501" width="93.182" height="7.313" style="fill:#f16034;fill-rule:nonzero;"/><path d="M660.415,707.767l-12.32,0l-16.248,0c0.004,-0.221 0.025,-0.426 0.025,-0.644l0,-16.948l28.543,0l0,17.592Zm0,-40.541l-28.543,0l0,-24.695l28.543,0l0,24.695Z" style="fill:#efeaf1;fill-rule:nonzero;"/><rect x="631.872" y="667.226" width="28.543" height="22.949" style="fill:#454a4d;fill-rule:nonzero;"/><path d="M660.415,636.536l-28.543,0l0,-8.693l28.613,0c-0.046,0.564 -0.07,1.134 -0.07,1.709l0,6.984Z" style="fill:#efeaf1;fill-rule:nonzero;"/><path d="M762.529,608.917l-61.194,0l0,-5.652l-69.463,0l0,-62.094l114.75,0c8.787,0 15.907,7.133 15.907,15.918l0,51.828Z" style="fill:#efeaf1;fill-rule:nonzero;"/><path d="M660.485,627.843l-28.613,0l0,-24.578l69.463,0l0,5.652l-20.293,0c-10.817,0 -19.689,8.327 -20.557,18.926Z" style="fill:#f47f5a;fill-rule:nonzero;"/><rect x="631.872" y="636.536" width="28.543" height="5.995" style="fill:#f47f5a;fill-rule:nonzero;"/><path d="M891.652,608.917l-69.02,0l-5.728,0l-135.862,0c-11.392,0 -20.627,9.237 -20.627,20.635l0,130.561c0,11.392 9.235,20.627 20.627,20.627l210.61,0c11.39,0 20.63,-9.235 20.63,-20.627l0,-130.561c0,-11.398 -9.24,-20.635 -20.63,-20.635Z" style="fill:#4c9fd7;fill-rule:nonzero;"/><path d="M711.28,780.74l-30.238,0c-0.113,0 -0.227,-0.001 -0.339,-0.003c-11.237,-0.181 -20.288,-9.345 -20.288,-20.624l0,-130.561c0,-11.398 9.235,-20.635 20.627,-20.635l30.238,0l0,171.823Z" style="fill:#81bde7;fill-rule:nonzero;"/><path d="M696.718,642.535c0,4.941 -4.008,8.953 -8.957,8.953c-4.947,0 -8.963,-4.012 -8.963,-8.953c0,-4.955 4.016,-8.965 8.963,-8.965c4.949,0 8.957,4.01 8.957,8.965Z" style="fill:#fdd21b;fill-rule:nonzero;"/><rect x="156.515" y="505.878" width="189.274" height="274.862" style="fill:#151d20;fill-rule:nonzero;"/><rect x="168.801" y="588.947" width="26.797" height="26.795" style="fill:#4c9fd7;fill-rule:nonzero;"/><rect x="168.801" y="636.779" width="26.797" height="26.799" style="fill:#fff;fill-rule:nonzero;"/><rect x="168.801" y="684.605" width="26.797" height="26.801" style="fill:#fff;fill-rule:nonzero;"/><rect x="168.801" y="732.435" width="26.797" height="26.797" style="fill:#fff;fill-rule:nonzero;"/><rect x="214.773" y="588.947" width="26.796" height="26.795" style="fill:#4c9fd7;fill-rule:nonzero;"/><rect x="214.773" y="636.779" width="26.796" height="26.799" style="fill:#fff;fill-rule:nonzero;"/><rect x="214.773" y="684.605" width="26.796" height="26.801" style="fill:#fff;fill-rule:nonzero;"/><rect x="214.773" y="732.435" width="26.796" height="26.797" style="fill:#fff;fill-rule:nonzero;"/><rect x="260.736" y="588.947" width="26.802" height="26.795" style="fill:#4c9fd7;fill-rule:nonzero;"/><rect x="168.801" y="577.064" width="26.797" height="3.674" style="fill:#fff;fill-rule:nonzero;"/><rect x="214.773" y="577.064" width="26.796" height="3.674" style="fill:#fff;fill-rule:nonzero;"/><rect x="260.736" y="577.064" width="26.802" height="3.674" style="fill:#fff;fill-rule:nonzero;"/><rect x="260.736" y="636.779" width="26.802" height="26.799" style="fill:#fff;fill-rule:nonzero;"/><rect x="260.736" y="684.605" width="26.802" height="26.801" style="fill:#fff;fill-rule:nonzero;"/><rect x="260.736" y="732.435" width="26.802" height="26.797" style="fill:#fff;fill-rule:nonzero;"/><rect x="306.708" y="588.947" width="26.798" height="26.795" style="fill:#4c9fd7;fill-rule:nonzero;"/><rect x="306.708" y="636.779" width="26.798" height="26.799" style="fill:#4c9fd7;fill-rule:nonzero;"/><rect x="306.708" y="684.605" width="26.798" height="74.627" style="fill:#4c9fd7;fill-rule:nonzero;"/><rect x="166.5" y="516.644" width="169.306" height="49.684" style="fill:#fff;fill-rule:nonzero;"/><path d="M324.166,578.9c0,2.514 -2.037,4.541 -4.545,4.541c-2.503,0 -4.539,-2.027 -4.539,-4.541c0,-2.502 2.036,-4.539 4.539,-4.539c2.508,0 4.545,2.037 4.545,4.539Z" style="fill:#fff;fill-rule:nonzero;"/><path d="M118.972,862.216c0.755,0 1.372,0.789 1.372,1.758l0,27.611c0,0.961 -0.617,1.761 -1.372,1.761l-39.212,0c-0.752,0 -1.367,-0.8 -1.367,-1.761l0,-27.611c0,-0.969 0.615,-1.758 1.367,-1.758l39.212,0Z" style="fill:#f16034;fill-rule:nonzero;"/><path d="M78.393,865.736l0,9.963l41.951,0l0,-9.963c0,-0.969 -0.617,-1.762 -1.372,-1.762l-39.212,0c-0.752,0 -1.367,0.793 -1.367,1.762Z" style="fill:#fafbfc;fill-rule:nonzero;"/><path d="M78.393,436.42l0,434.829l41.951,0l0,-75.527l0,-47.773l0,-289.508l0,-22.021l0,-95.854l-41.951,0l0,95.854Z" style="fill:#fdd21b;fill-rule:nonzero;"/><path d="M93.737,436.42l0,434.829l11.255,0l0,-75.527l0,-47.773l0,-289.508l0,-22.021l0,-95.854l-11.255,0l0,95.854Z" style="fill:#151d20;fill-rule:nonzero;"/><path d="M120.461,340.82l-21.097,14.879l-21.095,-14.865l21.095,-68.013l21.097,67.999Z" style="fill:#fafbfc;fill-rule:nonzero;"/><path d="M90.565,301.186l17.591,0l-8.792,-28.365l-8.799,28.365Z" style="fill:#151d20;fill-rule:nonzero;"/><path d="M368.727,836.39c0,19.402 15.786,35.186 35.184,35.186c19.404,0 35.188,-15.784 35.188,-35.186c0,-19.404 -15.784,-35.189 -35.188,-35.189c-19.398,0 -35.184,15.785 -35.184,35.189Z" style="fill:#fff;fill-rule:nonzero;"/><path d="M437.863,836.099c0,18.621 -15.101,33.728 -33.733,33.728c-18.625,0 -33.726,-15.107 -33.726,-33.728c0,-18.627 15.101,-33.733 33.726,-33.733c18.632,0 33.733,15.106 33.733,33.733Z" style="fill:#fdd21b;fill-rule:nonzero;"/><path d="M403.643,855.695l-2.409,0c0,0 0,-3.258 0,-4.498c-2.611,-0.235 -5.323,-0.952 -7.162,-1.969l-0.814,-0.451l1.988,-7.764l1.359,0.744c1.274,0.696 3.885,1.867 7.026,1.867c0.004,0 0.008,0 0.012,0l0,12.071Zm0,-16.243c-0.263,-0.099 -0.547,-0.201 -0.854,-0.304c-4.219,-1.42 -9.064,-3.787 -9.064,-9.523c0,-4.448 2.952,-7.838 7.739,-9.084c0,-1.147 0,-4.624 0,-4.624l2.179,0l0,12.006c-0.303,0.21 -0.503,0.506 -0.503,0.922c0,0.254 0.187,0.515 0.503,0.777l0,9.83Z" style="fill:#fff;fill-rule:nonzero;"/><path d="M403.911,871.576l-0.268,-0.002l0,-1.75c0.162,0.002 0.324,0.003 0.487,0.003c18.632,0 33.733,-15.107 33.733,-33.728c0,-18.627 -15.101,-33.733 -33.733,-33.733c-0.163,0 -0.325,0.002 -0.487,0.004l0,-1.167l0.268,-0.002c19.404,0 35.188,15.785 35.188,35.189c0,19.402 -15.784,35.186 -35.188,35.186Z" style="fill:#fff;fill-rule:nonzero;"/><path d="M404.13,869.827c-0.163,0 -0.325,-0.001 -0.487,-0.003l0,-14.129l4.487,0c0,0 0,-3.768 0,-4.975c5.042,-1.219 8.155,-4.723 8.155,-9.369c0,-4.76 -2.53,-7.674 -8.454,-9.748c-1.584,-0.577 -3.345,-1.282 -4.188,-1.981l0,-1.699c0.586,-0.404 1.56,-0.484 2.234,-0.484c2.98,0 4.887,0.916 6.03,1.465l1.311,0.629l0.414,-1.383l1.635,-6.147l-0.908,-0.429c-1.207,-0.565 -3.145,-1.282 -5.996,-1.524c0,-1.164 0,-4.133 0,-4.133l-4.72,0l0,-13.547c0.162,-0.002 0.324,-0.004 0.487,-0.004c18.632,0 33.733,15.106 33.733,33.733c0,18.621 -15.101,33.728 -33.733,33.728Zm-0.487,-26.203l0,-4.172c2.811,1.055 3.226,1.845 3.226,2.54c0,1.127 -1.619,1.63 -3.226,1.632Z" style="fill:#fddb4a;fill-rule:nonzero;"/><path d="M408.13,855.695l-4.487,0l0,-12.071c1.607,-0.002 3.226,-0.505 3.226,-1.632c0,-0.695 -0.415,-1.485 -3.226,-2.54l0,-9.83c0.843,0.699 2.604,1.404 4.188,1.981c5.924,2.074 8.454,4.988 8.454,9.748c0,4.646 -3.113,8.15 -8.155,9.369c0,1.207 0,4.975 0,4.975Zm5.088,-26.162l-1.311,-0.629c-1.143,-0.549 -3.05,-1.465 -6.03,-1.465c-0.674,0 -1.648,0.08 -2.234,0.484l0,-12.006l4.72,0c0,0 0,2.969 0,4.133c2.851,0.242 4.789,0.959 5.996,1.524l0.908,0.429l-1.635,6.147l-0.414,1.383Z" style="fill:#fff;fill-rule:nonzero;"/><path d="M430.959,756.814c0,19.402 15.786,35.185 35.183,35.185c19.404,0 35.189,-15.783 35.189,-35.185c0,-19.404 -15.785,-35.19 -35.189,-35.19c-19.397,0 -35.183,15.786 -35.183,35.19Z" style="fill:#fff;fill-rule:nonzero;"/><path d="M500.095,756.523c0,18.621 -15.102,33.728 -33.734,33.728c-18.624,0 -33.725,-15.107 -33.725,-33.728c0,-18.629 15.101,-33.733 33.725,-33.733c18.632,0 33.734,15.104 33.734,33.733Z" style="fill:#fdd21b;fill-rule:nonzero;"/><path d="M465.875,776.119l-2.409,0c0,0 0,-3.258 0,-4.498c-2.612,-0.235 -5.324,-0.952 -7.162,-1.969l-0.814,-0.451l1.986,-7.764l1.361,0.744c1.273,0.695 3.884,1.867 7.025,1.867c0.004,0 0.008,0 0.013,0l0,12.071Zm0,-16.244c-0.263,-0.098 -0.548,-0.2 -0.855,-0.303c-4.218,-1.42 -9.063,-3.787 -9.063,-9.524c0,-4.447 2.951,-7.838 7.739,-9.084c0,-1.146 0,-4.623 0,-4.623l2.179,0l0,12.006c-0.304,0.209 -0.504,0.505 -0.504,0.922c0,0.254 0.187,0.515 0.504,0.778l0,9.828Z" style="fill:#fff;fill-rule:nonzero;"/><path d="M466.142,791.999l-0.267,-0.001l0,-1.75c0.162,0.002 0.324,0.003 0.486,0.003c18.632,0 33.734,-15.107 33.734,-33.728c0,-18.629 -15.102,-33.733 -33.734,-33.733c-0.162,0 -0.324,0.001 -0.486,0.004l0,-1.168l0.267,-0.002c19.404,0 35.189,15.786 35.189,35.19c0,19.402 -15.785,35.185 -35.189,35.185Z" style="fill:#fff;fill-rule:nonzero;"/><path d="M466.361,790.251c-0.162,0 -0.324,-0.001 -0.486,-0.003l0,-14.129l4.488,0c0,0 0,-3.768 0,-4.975c5.04,-1.219 8.152,-4.723 8.152,-9.369c0,-4.76 -2.529,-7.674 -8.453,-9.748c-1.583,-0.577 -3.344,-1.281 -4.187,-1.98l0,-1.7c0.586,-0.404 1.56,-0.484 2.233,-0.484c2.981,0 4.887,0.916 6.03,1.464l1.31,0.629l0.417,-1.382l1.634,-6.147l-0.908,-0.429c-1.207,-0.565 -3.147,-1.282 -5.996,-1.524c0,-1.164 0,-4.133 0,-4.133l-4.72,0l0,-13.547c0.162,-0.003 0.324,-0.004 0.486,-0.004c18.632,0 33.734,15.104 33.734,33.733c0,18.621 -15.102,33.728 -33.734,33.728Zm-0.486,-26.203l0,-4.173c2.811,1.056 3.225,1.844 3.225,2.541c0,1.127 -1.618,1.63 -3.225,1.632Z" style="fill:#fddb4a;fill-rule:nonzero;"/><path d="M470.363,776.119l-4.488,0l0,-12.071c1.607,-0.002 3.225,-0.505 3.225,-1.632c0,-0.697 -0.414,-1.485 -3.225,-2.541l0,-9.828c0.843,0.699 2.604,1.403 4.187,1.98c5.924,2.074 8.453,4.988 8.453,9.748c0,4.646 -3.112,8.15 -8.152,9.369c0,1.207 0,4.975 0,4.975Zm5.085,-26.163l-1.31,-0.629c-1.143,-0.548 -3.049,-1.464 -6.03,-1.464c-0.673,0 -1.647,0.08 -2.233,0.484l0,-12.006l4.72,0c0,0 0,2.969 0,4.133c2.849,0.242 4.789,0.959 5.996,1.524l0.908,0.429l-1.634,6.147l-0.417,1.382Z" style="fill:#fff;fill-rule:nonzero;"/><path d="M495.749,799.423c0,19.403 15.785,35.188 35.182,35.188c19.404,0 35.189,-15.785 35.189,-35.188c0,-19.404 -15.785,-35.189 -35.189,-35.189c-19.397,0 -35.182,15.785 -35.182,35.189Z" style="fill:#fff;fill-rule:nonzero;"/><path d="M564.884,799.132c0,18.623 -15.1,33.731 -33.734,33.731c-18.623,0 -33.725,-15.108 -33.725,-33.731c0,-18.627 15.102,-33.732 33.725,-33.732c18.634,0 33.734,15.105 33.734,33.732Z" style="fill:#fdd21b;fill-rule:nonzero;"/><path d="M530.663,818.73l-2.408,0c0,0 0,-3.26 0,-4.498c-2.611,-0.235 -5.322,-0.953 -7.162,-1.969l-0.814,-0.451l1.988,-7.766l1.359,0.744c1.274,0.698 3.885,1.87 7.026,1.87c0.004,0 0.007,0 0.011,0l0,12.07Zm0,-16.244c-0.263,-0.099 -0.547,-0.2 -0.853,-0.303c-4.219,-1.422 -9.063,-3.787 -9.063,-9.523c0,-4.45 2.95,-7.84 7.738,-9.084c0,-1.149 0,-4.624 0,-4.624l2.178,0l0,12.007c-0.303,0.209 -0.502,0.505 -0.502,0.921c0,0.253 0.187,0.514 0.502,0.775l0,9.831Z" style="fill:#fff;fill-rule:nonzero;"/><path d="M530.931,834.611l-0.268,-0.004l0,-1.748c0.162,0.002 0.324,0.004 0.487,0.004c18.634,0 33.734,-15.108 33.734,-33.731c0,-18.627 -15.1,-33.732 -33.734,-33.732c-0.163,0 -0.325,0.001 -0.487,0.003l0,-1.165l0.268,-0.004c19.404,0 35.189,15.785 35.189,35.189c0,19.403 -15.785,35.188 -35.189,35.188Z" style="fill:#fff;fill-rule:nonzero;"/><path d="M531.15,832.863c-0.163,0 -0.325,-0.002 -0.487,-0.004l0,-14.129l4.488,0c0,0 0,-3.768 0,-4.977c5.042,-1.218 8.155,-4.72 8.155,-9.369c0,-4.76 -2.529,-7.674 -8.455,-9.748c-1.583,-0.577 -3.345,-1.282 -4.188,-1.981l0,-1.696c0.586,-0.404 1.56,-0.485 2.235,-0.485c2.98,0 4.887,0.916 6.031,1.463l1.309,0.631l0.415,-1.385l1.635,-6.145l-0.908,-0.431c-1.207,-0.565 -3.145,-1.281 -5.996,-1.524c0,-1.164 0,-4.131 0,-4.131l-4.721,0l0,-13.549c0.162,-0.002 0.324,-0.003 0.487,-0.003c18.634,0 33.734,15.105 33.734,33.732c0,18.623 -15.1,33.731 -33.734,33.731Zm-0.487,-26.203l0,-4.174c2.812,1.055 3.227,1.844 3.227,2.539c0,1.128 -1.619,1.632 -3.227,1.635Z" style="fill:#fddb4a;fill-rule:nonzero;"/><path d="M535.151,818.73l-4.488,0l0,-12.07c1.608,-0.003 3.227,-0.507 3.227,-1.635c0,-0.695 -0.415,-1.484 -3.227,-2.539l0,-9.831c0.843,0.699 2.605,1.404 4.188,1.981c5.926,2.074 8.455,4.988 8.455,9.748c0,4.649 -3.113,8.151 -8.155,9.369c0,1.209 0,4.977 0,4.977Zm5.087,-26.162l-1.309,-0.631c-1.144,-0.547 -3.051,-1.463 -6.031,-1.463c-0.675,0 -1.649,0.081 -2.235,0.485l0,-12.007l4.721,0c0,0 0,2.967 0,4.131c2.851,0.243 4.789,0.959 5.996,1.524l0.908,0.431l-1.635,6.145l-0.415,1.385Z" style="fill:#fff;fill-rule:nonzero;"/></g></svg>